<?xml version="1.0"?><svg width="640" height="480" xmlns="http://www.w3.org/2000/svg">
 <title>red recycle</title>
 <g>
  <title>Layer 1</title>
  <g id="layer1">
   <g id="g3535">
    <path d="m359.805115,219.969345l97.36496,-59.429291l43.624664,85.914139c10.537354,46.94043 -47.207397,64.166351 -93.571686,61.367188l-47.417938,-87.852036z" id="path2742" stroke-width="0.25000000pt" fill-rule="evenodd" fill="#ff0000"/>
    <path d="m337.676697,281.336548l-51.211487,92.37384l51.211487,93.66571l1.264435,-37.466248l46.785797,0c17.070526,1.507172 39.198944,-9.904999 47.41806,-26.484833l60.062866,-112.398804c-19.810272,20.025116 -45.283295,25.19278 -74.604401,25.19278l-79.029999,0l-1.896759,-34.882446z" id="path2743" stroke-width="0.25000000pt" fill-rule="evenodd" fill="#ff0000"/>
    <path d="m223.257996,167.448303l-98.114212,-58.1287l52.343338,-80.670763c35.05304,-32.197144 77.822067,11.024168 97.931274,53.799494l-52.1604,84.999969z" id="path2751" stroke-width="0.25000000pt" fill-rule="evenodd" fill="#ff0000"/>
    <path d="m286.511841,157.428604l103.903137,0.909546l55.294006,-91.210548l-32.674286,17.056068l-22.709198,-41.793087c-6.995972,-15.980429 -27.502411,-30.208132 -45.679535,-29.502562l-125.335251,0.903467c26.751419,7.976315 43.537796,28.22271 57.769852,54.414886l38.360077,70.59639l-28.928802,18.625839z" id="path2752" stroke-width="0.25000000pt" fill-rule="evenodd" fill="#ff0000"/>
    <path d="m50.06358,162.635788l30.400143,23.752029l-28.611916,54.812424c-14.305988,25.274521 10.270588,49.896347 25.92955,58.466507c15.415283,8.436829 39.341446,9.439972 61.694489,9.135406l40.235535,-65.774841l30.400208,16.443726l-52.753265,-97.74884l-107.294743,0.913589z" id="path2753" stroke-width="0.25000000pt" fill-rule="evenodd" fill="#ff0000"/>
    <path d="m54.534172,289.617828l65.271004,120.58728c13.1138,16.74823 37.851273,20.706909 63.482773,20.0979l68.847473,0l0,-114.192474l-130.542023,-0.913605c-20.266815,1.218048 -46.792465,-3.045105 -67.059227,-25.579102z" id="path2754" stroke-width="0.25000000pt" fill-rule="evenodd" fill="#ff0000"/>
   </g>
  </g>
 </g>
</svg>